<svg xmlns="http://www.w3.org/2000/svg" aria-hidden="true" role="img" width="150" height="150"
 preserveAspectRatio="xMidYMid meet" viewBox="0 0 107.589 66.1482">
<path fill="#43414B" d="M5.48565 24.7484C6.72968 24.7484 9.22438 25.4497 14.0219 28.8104C15.2527 29.6704 16.5364 30.6428 17.8598 31.6815C20.5067 29.2205 23.0411 26.7529 25.3836 23.5577C18.2569 17.9147 11.461 13.7932 5.48565 13.7932C2.46158 13.7932 0.0065918 16.2476 0.0065918 19.2708C0.0065918 22.3007 2.46158 24.7484 5.48565 24.7484Z"></path>
 <path fill="#43414B" d="M74.5033 0C58.9594 0 43.8722 12.2519 30.3796 23.862C30.0554 24.1465 18.1576 34.7379 12.983 38.0324C8.85384 40.7911 6.63045 41.3997 5.47906 41.3997C2.45499 41.3997 0 43.854 0 46.8773C0 49.9006 2.45499 52.3549 5.47906 52.3549C12.3543 52.3549 19.5737 47.3536 28.0769 40.2618C31.273 37.6024 34.4625 34.8239 36.494 33.0509C36.5998 32.9583 36.7123 32.8657 36.8182 32.7665C37.8108 31.8999 38.4725 31.3243 38.6313 31.2052C50.3703 21.1431 63.2275 10.9486 74.4967 10.9486C86.6988 10.9486 96.6246 20.8718 96.6246 33.0708C96.6246 45.2697 86.6988 55.193 74.4967 55.193C63.1614 55.193 50.8732 45.369 38.9953 35.1877C35.9513 36.4712 32.7354 39.038 29.5393 41.5055C43.4619 53.506 58.4036 66.1482 74.5033 66.1482C92.7469 66.1482 107.589 51.3097 107.589 33.0708C107.589 14.8319 92.7469 0 74.5033 0Z"></path></svg>
