<svg xmlns="http://www.w3.org/2000/svg" xmlns:xlink="http://www.w3.org/1999/xlink" width="36px" height="36px" viewBox="0 0 36 36" version="1.1">
  <circle cx="18" cy="18" r="18" fill="#ffffff"/>
  <g id="surface1">
    <path style="stroke:none;fill-rule:nonzero;fill:rgb(26.27451%,25.490196%,29.411765%);fill-opacity:1;" d="M 1.835938 15.214844 C 2.25 15.214844 3.085938 15.449219 4.691406 16.574219 C 5.105469 16.859375 5.53125 17.1875 5.976562 17.535156 C 6.863281 16.710938 7.710938 15.886719 8.492188 14.816406 C 6.109375 12.925781 3.835938 11.546875 1.835938 11.546875 C 0.824219 11.546875 0.00390625 12.371094 0.00390625 13.382812 C 0.00390625 14.394531 0.824219 15.214844 1.835938 15.214844 Z M 1.835938 15.214844 "/>
    <path style="stroke:none;fill-rule:nonzero;fill:rgb(26.27451%,25.490196%,29.411765%);fill-opacity:1;" d="M 24.929688 6.933594 C 19.726562 6.933594 14.679688 11.03125 10.164062 14.917969 C 10.058594 15.011719 6.074219 18.558594 4.34375 19.660156 C 2.960938 20.582031 2.21875 20.785156 1.832031 20.785156 C 0.820312 20.785156 0 21.605469 0 22.617188 C 0 23.628906 0.820312 24.453125 1.832031 24.453125 C 4.132812 24.453125 6.550781 22.777344 9.394531 20.40625 C 10.464844 19.515625 11.53125 18.585938 12.210938 17.992188 C 12.246094 17.960938 12.285156 17.929688 12.320312 17.898438 C 12.652344 17.605469 12.875 17.414062 12.925781 17.375 C 16.855469 14.007812 21.15625 10.597656 24.925781 10.597656 C 29.011719 10.597656 32.332031 13.917969 32.332031 18 C 32.332031 22.082031 29.011719 25.402344 24.925781 25.402344 C 21.132812 25.402344 17.023438 22.113281 13.046875 18.707031 C 12.03125 19.136719 10.953125 19.996094 9.882812 20.820312 C 14.542969 24.835938 19.542969 29.066406 24.929688 29.066406 C 31.035156 29.066406 36 24.101562 36 18 C 36 11.894531 31.035156 6.933594 24.929688 6.933594 Z M 24.929688 6.933594 "/>
  </g>
</svg>